# xmcd CD database file
#
# Track frame offsets:
#	150
#	29862
#	51247
#	74581
#	91791
#	109577
#	140413
#	172673
#	189409
#	206519
#	233080
#	251540
#
# Disc length: 3630 seconds
#
# Revision: 0
# Processed by: cddbd v1.5.2PL0 Copyright (c) Steve Scherf et al.
# Submitted via: CDex 1.51
#
DISCID=a20e2c0c
DTITLE=Dan Gibson - Home
DYEAR=2007
DGENRE=New Age
TTITLE0=On A Summer's Morn
TTITLE1=Mountain Dew
TTITLE2=The Way Home
TTITLE3=In The Pines
TTITLE4=Finding Shelter
TTITLE5=Southern Charm
TTITLE6=Banks Of The Ohio
TTITLE7=Old Friend
TTITLE8=Sweet Sunny South
TTITLE9=Under The Harvest Moon
TTITLE10=Wildflowers
TTITLE11=Peace In The Valley
EXTD=YEAR: 2007
EXTT0=
EXTT1=
EXTT2=
EXTT3=
EXTT4=
EXTT5=
EXTT6=
EXTT7=
EXTT8=
EXTT9=
EXTT10=
EXTT11=
PLAYORDER=
